<svg width="815" height="199" viewBox="0 0 815 199" fill="none" xmlns="http://www.w3.org/2000/svg">
<path d="M67.17 99.46C48.52 99.46 32.96 113.72 31.35 132.3L28.05 170.32H67.53L73.69 99.45H67.18L67.17 99.46Z" fill="white"/>
<path d="M219.09 28.6C197.91 28.6 181.32 46.82 183.29 67.91L192.88 170.33H232.36L219.09 28.6Z" fill="white"/>
<path d="M150.79 59.63C125.97 59.63 103.74 74.97 94.93 98.17L67.53 170.33H107.01L130.21 109.74L153.41 170.33H192.89L150.8 59.63H150.79Z" fill="white"/>
<path d="M431.63 141.56C417.91 140.21 406.89 129.73 404.58 116.47H476.22V111.32C476.22 88.86 457.74 70.59 435.03 70.59C412.32 70.59 393.83 88.86 393.83 111.32C393.83 124.45 400.15 136.14 409.93 143.6C410.06 143.7 410.18 143.8 410.31 143.89C410.41 143.97 410.52 144.04 410.62 144.11C417.22 149.01 424.92 151.6 432.7 151.98C433.47 152.02 434.24 152.05 435.02 152.05V152.02C446.61 151.93 458.15 146.95 466.26 137.37L464.96 136.27C461.55 133.38 456.6 133.16 452.96 135.78C448.25 139.17 441.12 142.49 431.62 141.55L431.63 141.56ZM404.58 106.16C407.07 91.83 419.78 80.89 435.02 80.89C450.26 80.89 462.97 91.83 465.46 106.16H404.58Z" fill="white"/>
<path d="M647.33 141.56C633.61 140.21 622.59 129.73 620.28 116.47H691.92V111.32C691.92 88.86 673.44 70.59 650.73 70.59C628.02 70.59 609.53 88.86 609.53 111.32C609.53 124.45 615.85 136.14 625.63 143.6C625.76 143.7 625.88 143.8 626.01 143.89C626.11 143.97 626.22 144.04 626.32 144.11C632.92 149.01 640.62 151.6 648.4 151.98C649.17 152.02 649.94 152.05 650.72 152.05V152.02C662.31 151.93 673.85 146.95 681.96 137.37L680.66 136.27C677.25 133.38 672.3 133.16 668.66 135.78C663.95 139.17 656.82 142.49 647.32 141.55L647.33 141.56ZM620.28 106.16C622.77 91.83 635.48 80.89 650.72 80.89C665.96 80.89 678.67 91.83 681.16 106.16H620.28Z" fill="white"/>
<path d="M380.02 78.52L356.78 133.21L331.58 70.4C326.17 70.4 321.29 73.68 319.25 78.69L297.07 133.16L270.91 70.17H270.85C265.57 70.17 261.98 75.54 264.01 80.42L293.76 152.06H300.51L327.07 86.84L353.23 152.06H359.97L394.77 70.17H392.65C387.15 70.17 382.17 73.46 380.02 78.52Z" fill="white"/>
<path d="M595.72 78.52L572.48 133.21L547.28 70.4C541.87 70.4 536.99 73.68 534.95 78.69L512.77 133.16L486.61 70.17H486.55C481.27 70.17 477.68 75.54 479.71 80.42L509.46 152.06H516.21L542.77 86.84L568.93 152.06H575.67L610.47 70.17H608.35C602.85 70.17 597.87 73.46 595.72 78.52Z" fill="white"/>
<path d="M745.43 70.56C732.94 70.56 721.76 76.1 714.2 84.8V46.87C708.51 46.87 703.89 51.49 703.89 57.18V151.8H714.2V137.81C721.76 146.51 732.95 152.05 745.43 152.05C768.15 152.05 786.64 133.77 786.64 111.3C786.64 88.83 768.15 70.55 745.43 70.55V70.56ZM745.43 141.75C728.39 141.75 714.53 128.09 714.53 111.31C714.53 94.53 728.39 80.87 745.43 80.87C762.47 80.87 776.33 94.52 776.33 111.31C776.33 128.1 762.47 141.75 745.43 141.75Z" fill="white"/>
</svg>
